<svg width="300" height="300" viewBox="0 0 300 300" fill="none" xmlns="http://www.w3.org/2000/svg">
<path fill-rule="evenodd" clip-rule="evenodd" d="M133.477 0.677831C91.6087 5.33683 52.4041 28.245 28.0892 62.2585C8.20728 90.0712 -0.969363 120.522 0.0808166 155.195C0.467647 167.975 0.904957 171.516 2.0934 171.501C2.36837 171.498 7.48644 167.726 13.4675 163.121C19.4485 158.515 37.9742 144.298 54.6357 131.526C186.088 30.7703 209.193 12.9429 208.989 12.4349C208.638 11.5602 198.184 7.57855 190.957 5.56597C174.076 0.865801 150.104 -1.17241 133.477 0.677831ZM161.829 69.8203C126.797 96.7435 83.6912 129.851 66.0393 143.392C30.9811 170.286 12.7373 184.334 8.2197 187.916C4.82681 190.607 4.81672 190.432 8.99724 201.801C31.8891 264.052 93.0232 303.986 158.844 299.684C176.067 298.558 188.704 295.843 204.24 289.927C216.098 285.413 229.779 277.796 240.281 269.861C246.442 265.207 262.419 250.253 262.419 249.141C262.419 248.537 256.242 244.936 154.657 186.309C120.381 166.528 92.5082 150.064 92.7179 149.724C92.9284 149.385 94.5821 148.268 96.3935 147.244C99.294 145.605 120.26 133.508 195.618 89.9966C206.512 83.7064 225.99 72.4706 238.902 65.0285C251.815 57.5871 262.388 51.2045 262.399 50.8456C262.431 49.8063 249.819 37.6275 243.565 32.657C237.148 27.5584 227.216 20.8029 226.195 20.8425C225.825 20.8565 196.86 42.8962 161.829 69.8203ZM270.575 65.4137C268.821 66.5618 247.19 79.115 223.969 92.4597C215.425 97.3696 191.831 110.978 171.538 122.701C151.245 134.423 132.458 145.213 129.787 146.677C127.117 148.142 124.932 149.556 124.932 149.821C124.932 150.085 137.253 157.41 152.313 166.098C167.372 174.786 184.937 184.938 191.345 188.659C238.046 215.774 272.074 235.202 272.865 235.202C275.013 235.202 286.404 213.919 291.162 201.015C300.384 176.006 302.43 144.57 296.587 117.702C294.341 107.375 289.363 93.2373 284.631 83.7453C280.131 74.7193 273.726 64.2875 272.726 64.355C272.398 64.3776 271.429 64.8537 270.575 65.4137Z" fill="#4338CA"/>
</svg>
